<svg width="24" height="24" viewBox="0 0 24 24" fill="none" stroke="currentColor" stroke-width="2" stroke-linecap="round" xmlns="http://www.w3.org/2000/svg">
<path d="M6.5 17.7143V17.7143C6.5 18.4244 5.92437 19 5.21429 19H4.75C3.7835 19 3 18.2165 3 17.25V14.75C3 13.7835 3.7835 13 4.75 13H5.21429C5.92437 13 6.5 13.5756 6.5 14.2857V14.2857" stroke-linecap="square"/>
<path d="M10.5 14.75V17.25C10.5 18.2165 11.2835 19 12.25 19C13.2165 19 14 18.2165 14 17.25V16V14.75C14 13.7835 13.2165 13 12.25 13C11.2835 13 10.5 13.7835 10.5 14.75Z" stroke-linecap="round"/>
<path d="M18 17V17C18 16.4477 18.4477 16 19 16H19.606C20.3759 16 21 16.6241 21 17.394V17.394C21 17.8285 20.7975 18.2381 20.4522 18.5018L18.1643 20.2495C18.0608 20.3286 18 20.4515 18 20.5818V20.5818C18 20.8128 18.1872 21 18.4182 21H21" stroke-linecap="square"/>
<path d="M18.1104 11.0061L17.1165 10.8957L16.8957 12.8835L17.8896 12.9939L18 12L18.1104 11.0061ZM15.5528 6.10557C15.0588 6.35256 14.8586 6.95324 15.1056 7.44721C15.3526 7.94119 15.9532 8.14142 16.4472 7.89443L16 7L15.5528 6.10557ZM17.3935 6.30323L16.9463 5.4088L17.3935 6.30323ZM18 12L17.8896 12.9939L18.3074 13.0403L18.4179 12.0464L18.5283 11.0525L18.1104 11.0061L18 12ZM17.3935 6.30323L16.9463 5.4088L15.5528 6.10557L16 7L16.4472 7.89443L17.8408 7.19765L17.3935 6.30323ZM21.7431 8.46308L22.7259 8.27879C22.2311 5.63973 19.3479 4.20801 16.9463 5.4088L17.3935 6.30323L17.8408 7.19765C19.0539 6.5911 20.5103 7.3143 20.7602 8.64737L21.7431 8.46308ZM18.4179 12.0464L18.3074 13.0403C21.0057 13.3401 23.2263 10.9472 22.7259 8.27879L21.7431 8.46308L20.7602 8.64737C21.0129 9.99525 19.8913 11.204 18.5283 11.0525L18.4179 12.0464Z" fill="currentColor" stroke="none"/>
<path d="M16 7L16.0848 6.57583C16.5583 4.2086 14.7477 2 12.3335 2H12.0311C9.89063 2 8.2345 3.87603 8.5 6V6" stroke-linecap="round"/>
<path d="M7.9855 6.85749C8.45908 7.14164 9.07334 6.98808 9.35749 6.5145C9.64164 6.04092 9.48808 5.42666 9.0145 5.14251L8.5 6L7.9855 6.85749ZM2.152 9.53L2.682 10.378L4.378 9.318L3.848 8.47L3 9L2.152 9.53ZM2.93758 8.90012L2.08958 9.43012L2.93758 8.90012ZM2.93758 8.90012L2.08958 9.43012L2.152 9.53L3 9L3.848 8.47L3.78558 8.37013L2.93758 8.90012ZM8.5 6L9.0145 5.14251L7.30636 4.11763L6.79187 4.97512L6.27737 5.83261L7.9855 6.85749L8.5 6ZM6.79187 4.97512L7.30636 4.11763C6.60992 3.69976 5.79864 3.51418 4.98979 3.58771L5.08032 4.58361L5.17086 5.5795C5.55721 5.54438 5.94472 5.63302 6.27737 5.83261L6.79187 4.97512ZM2.93758 8.90012L3.78558 8.37013C3.06321 7.21433 3.81349 5.7029 5.17086 5.5795L5.08032 4.58361L4.98979 3.58771C2.14803 3.84606 0.577238 7.01038 2.08958 9.43012L2.93758 8.90012Z" fill="currentColor" stroke="none"/>
</svg>