<svg width="24" height="24" viewBox="0 0 24 24" fill="none" stroke="currentColor" stroke-width="2" stroke-linecap="round" xmlns="http://www.w3.org/2000/svg">
<path d="M6.5 17.7143V17.7143C6.5 18.4244 5.92437 19 5.21429 19H4.75C3.7835 19 3 18.2165 3 17.25V14.75C3 13.7835 3.7835 13 4.75 13H5.21429C5.92437 13 6.5 13.5756 6.5 14.2857V14.2857" />
<path d="M10.5 14.75V17.25C10.5 18.2165 11.2835 19 12.25 19C13.2165 19 14 18.2165 14 17.25V16V14.75C14 13.7835 13.2165 13 12.25 13C11.2835 13 10.5 13.7835 10.5 14.75Z" />
<path d="M18 17.25V17.25C18 16.5596 18.5596 16 19.25 16H19.606C20.3759 16 21 16.6241 21 17.394V17.394C21 17.8285 20.7975 18.2381 20.4522 18.5018L18.1643 20.2495C18.0608 20.3286 18 20.4515 18 20.5818V20.5818C18 20.8128 18.1872 21 18.4182 21H21" />
<path d="M18 12L18.4179 12.0464C20.4485 12.2721 22.1196 10.4712 21.7431 8.46308V8.46308C21.3707 6.47701 19.2009 5.39955 17.3935 6.30323L16 7" />
<path d="M16 7L16.0848 6.57583C16.5583 4.2086 14.7477 2 12.3335 2H12.0311C9.89063 2 8.2345 3.87603 8.5 6V6" />
<path d="M8.5 6L6.79187 4.97512C6.27732 4.66639 5.67792 4.52928 5.08032 4.58361V4.58361C2.98076 4.77448 1.82022 7.11236 2.93758 8.90012L3 9" />
</svg>