<svg width="24" height="24" viewBox="0 0 24 24" fill="none" xmlns="http://www.w3.org/2000/svg" stroke-linecap="round" stroke-width="2" stroke="currentColor">
<path d="M3 21.0008C3 21.0008 6.5 21.0008 7 18.4294C7.5 15.8579 8 8.07132 9 5.5C10 2.92868 13 3 13 3" />
<path d="M3.5 13.5C3.5 13.5 4 12 5.5 12C7 12 8.5 12 10 12C11.5 12 12 10.5 12 10.5" />
<path d="M13 21C13 21 13.5 21 14.5 20C15.5 19 18.5 15 19.5 14C20.5 13 21 13 21 13" />
<path d="M14 13C14 13 14.5 13 15.5 14C16.5 15 17.5 19 18.5 20C19.5 21 20 21 20 21" />
</svg>