<svg width="24" height="24" viewBox="0 0 24 24" fill="none" xmlns="http://www.w3.org/2000/svg">
<path d="M4 22V2H20V22H4Z" fill="#888888" stroke="black" stroke-width="2" stroke-linecap="round"/>
<path d="M9.87603 9.83767L12 6.5L14.124 9.83768C14.8451 10.9709 14.3789 12.4805 13.1442 13.0096C12.4135 13.3228 11.5865 13.3228 10.8558 13.0096C9.62114 12.4805 9.15486 10.9709 9.87603 9.83767Z" fill="black" stroke="black" stroke-width="2" stroke-linecap="round"/>
<path d="M9.25 16.5C9.66421 16.5 10 16.8358 10 17.25C10 17.6642 9.66421 18 9.25 18C8.83579 18 8.5 17.6642 8.5 17.25C8.5 16.8358 8.83579 16.5 9.25 16.5Z" fill="black" stroke="black" stroke-width="2" stroke-linecap="round"/>
<path d="M14.75 16.5C15.1642 16.5 15.5 16.8358 15.5 17.25C15.5 17.6642 15.1642 18 14.75 18C14.3358 18 14 17.6642 14 17.25C14 16.8358 14.3358 16.5 14.75 16.5Z" fill="black" stroke="black" stroke-width="2" stroke-linecap="round"/>
</svg>
