<svg width="24" height="24" viewBox="0 0 24 24" fill="none" xmlns="http://www.w3.org/2000/svg">
<path d="M18 1C19.6569 1 21 2.34315 21 4V20C21 21.6569 19.6569 23 18 23H6C4.34315 23 3 21.6569 3 20V4C3 2.34315 4.34315 1 6 1H18ZM9.25 15.5C8.2835 15.5 7.5 16.2835 7.5 17.25C7.5 18.2165 8.2835 19 9.25 19C10.2165 19 11 18.2165 11 17.25C11 16.2835 10.2165 15.5 9.25 15.5ZM14.75 15.5C13.7835 15.5 13 16.2835 13 17.25C13 18.2165 13.7835 19 14.75 19C15.7165 19 16.5 18.2165 16.5 17.25C16.5 16.2835 15.7165 15.5 14.75 15.5ZM11.1562 5.96289L9.03223 9.30078C7.98007 10.9542 8.66053 13.1567 10.4619 13.9287C11.4441 14.3497 12.5559 14.3497 13.5381 13.9287C15.3395 13.1567 16.0199 10.9542 14.9678 9.30078L12.8438 5.96289L12 4.6377L11.1562 5.96289Z" fill="black"/>
</svg>
