<svg width="24" height="24" viewBox="0 0 24 24" fill="none" xmlns="http://www.w3.org/2000/svg">
<path d="M12 3.5V17.5C12 19.433 10.433 21 8.5 21H8C6.34315 21 5 19.6569 5 18V18" stroke="black" stroke-width="2" stroke-linecap="round"/>
<path d="M12 3.5C12 11.6332 12 13.2045 12 17.4997C12 19.4327 13.567 21 15.5 21H16C17.6569 21 19 19.6569 19 18V18" stroke="black" stroke-width="2" stroke-linecap="round"/>
<path d="M6.84699 17H3.15301C2.54446 17 2.077 16.461 2.16306 15.8586L2.87735 10.8586C2.94772 10.3659 3.36964 10 3.8673 10H6.1327C6.63035 10 7.05228 10.3659 7.12265 10.8586L7.83694 15.8586C7.923 16.461 7.45554 17 6.84699 17Z" fill="black" stroke="black" stroke-width="2" stroke-linecap="round"/>
<path d="M20.847 17H17.153C16.5445 17 16.077 16.461 16.1631 15.8586L16.8773 10.8586C16.9477 10.3659 17.3696 10 17.8673 10H20.1327C20.6304 10 21.0523 10.3659 21.1227 10.8586L21.8369 15.8586C21.923 16.461 21.4555 17 20.847 17Z" fill="black" stroke="black" stroke-width="2" stroke-linecap="round"/>
<path d="M9.78885 3.89443L8 3H16L14.2111 3.89443C14.0723 3.96385 13.9192 4 13.7639 4H10.2361C10.0808 4 9.92771 3.96385 9.78885 3.89443Z" stroke="black" stroke-width="2" stroke-linecap="round"/>
</svg>
