<svg width="24" height="24" viewBox="0 0 24 24" fill="none" xmlns="http://www.w3.org/2000/svg" stroke-width="2" stroke-linecap="round" stroke="currentColor">
<path d="M3 21C3 21 6.5 21 7 18.4286C7.5 15.8571 6.5 8.07132 7.5 5.5C8.5 2.92868 11.5 3 11.5 3" />
<path d="M3.5 13.5C3.5 13.5 4 12 5 12C6 12 8 12 9 12C10 12 10.5 10.5 10.5 10.5" />
<path d="M14 21C14 21 14.5 21 15.5 20C16.5 19 18.5 15 19.5 14C20.5 13 21 13 21 13" />
<path d="M14 13C14 13 14.5 13 15.5 14C16.5 15 18.5 19 19.5 20C20.5 21 21 21 21 21" />
</svg>
