<svg width="24" height="24" viewBox="0 0 24 24" fill="none" xmlns="http://www.w3.org/2000/svg">
<path d="M13.9129 14.6667H10.1509C9.63868 14.6667 9.2234 15.0819 9.2234 15.5942C9.2234 17.131 10.4951 18.3768 12.0319 18.3768C13.5687 18.3768 14.8404 17.131 14.8404 15.5942C14.8404 15.0819 14.4252 14.6667 13.9129 14.6667Z" fill="#888888" stroke="black" stroke-width="2" stroke-linecap="round"/>
<path d="M12.0319 4.46378V14.6667" stroke="black" stroke-width="2" stroke-linecap="round"/>
<path d="M9.94978 4.82361L8.28723 4H15.7766L14.114 4.82361C13.976 4.89197 13.8241 4.92754 13.6701 4.92754H10.3937C10.2397 4.92754 10.0878 4.89197 9.94978 4.82361Z" stroke="black" stroke-width="2" stroke-linecap="round"/>
<path d="M9.2234 15.5942L4.10498 15.2041C3.49613 15.1577 2.90074 15.3994 2.49654 15.8571L1.82378 16.6189C1.63308 16.8348 1.61223 17.1523 1.77306 17.3913V17.3913C1.89445 17.5717 2.09993 17.6772 2.31727 17.6707L9.69149 17.4493" stroke="black" stroke-width="2" stroke-linecap="round"/>
<path d="M18.5294 10.9221C16.6201 12.6267 13.8623 15.0287 13.1403 15.6703C13.076 15.7274 13.1161 15.8261 13.2021 15.8261H14.0224C14.558 15.8261 15.0838 15.6827 15.5452 15.4109L22.0866 11.5573C22.6185 11.2439 22.5156 10.446 21.9216 10.2778C21.8818 10.2666 21.841 10.2588 21.7997 10.2547L20.8507 10.1607C20.0045 10.0769 19.1638 10.3557 18.5294 10.9221Z" stroke="black" stroke-width="2" stroke-linecap="round"/>
<path d="M15 16.5L19.9193 18.2888C20.2679 18.4156 20.5 18.7469 20.5 19.1179V19.1179C20.5 19.6051 20.1051 20 19.6179 20H18.1295C17.717 20 17.3116 19.8923 16.9534 19.6877L14 18" stroke="black" stroke-width="2" stroke-linecap="round"/>
</svg>
