<svg width="24" height="24" viewBox="0 0 24 24" fill="none" xmlns="http://www.w3.org/2000/svg">
<path d="M22 9C22 9.70597 21.783 10.4291 21.3246 11.1333C20.8634 11.8418 20.1653 12.5181 19.2413 13.1061C18.3181 13.6936 17.2031 14.1711 15.9546 14.5002C14.707 14.829 13.3625 15 12 15C10.6375 15 9.29297 14.829 8.04537 14.5002C6.79686 14.1711 5.68186 13.6936 4.7587 13.1061C3.83468 12.5181 3.13659 11.8418 2.67542 11.1333C2.21705 10.4291 2 9.70596 2 9C2 8.29403 2.21705 7.57094 2.67542 6.86674C3.13659 6.15824 3.83468 5.48192 4.7587 4.89391C5.68186 4.30645 6.79686 3.82891 8.04537 3.49981C9.29297 3.17096 10.6375 3 12 3C13.3625 3 14.707 3.17096 15.9546 3.49982C17.2031 3.82891 18.3181 4.30645 19.2413 4.89391C20.1653 5.48193 20.8634 6.15824 21.3246 6.86674C21.783 7.57094 22 8.29404 22 9L22 9Z" stroke="black" stroke-width="2"/>
<path d="M18 9C18 9.06676 17.9731 9.22028 17.7481 9.45309C17.5176 9.69155 17.1288 9.95663 16.5558 10.2022C15.9895 10.4449 15.2938 10.6468 14.504 10.787C13.7161 10.9269 12.8645 11 12 11C11.1355 11 10.2839 10.9269 9.496 10.787C8.70623 10.6468 8.01052 10.4449 7.44417 10.2022C6.87122 9.95662 6.48237 9.69155 6.25189 9.45309C6.02688 9.22028 6 9.06676 6 9C6 8.93324 6.02688 8.77972 6.25189 8.54691C6.48237 8.30844 6.87122 8.04337 7.44417 7.79782C8.01052 7.5551 8.70623 7.35317 9.496 7.21297C10.2839 7.07309 11.1355 7 12 7C12.8645 7 13.7161 7.07309 14.504 7.21297C15.2938 7.35317 15.9895 7.5551 16.5558 7.79782C17.1288 8.04338 17.5176 8.30845 17.7481 8.54691C17.9731 8.77972 18 8.93324 18 9L18 9Z" stroke="black" stroke-width="2"/>
<path d="M12 19V21" stroke="black" stroke-width="2" stroke-linecap="square"/>
<path d="M18 18L19 20" stroke="black" stroke-width="2" stroke-linecap="square"/>
<path d="M6 18L5 20" stroke="black" stroke-width="2" stroke-linecap="square"/>
</svg>
