<svg width="24" height="24" viewBox="0 0 24 24" fill="none" xmlns="http://www.w3.org/2000/svg">
<path d="M12 2C17.5228 2 22 6.47715 22 12C22 17.5228 17.5228 22 12 22C6.47715 22 2 17.5228 2 12C2 6.47715 6.47715 2 12 2ZM12.9473 10.1055C12.4533 9.85848 11.8525 10.0588 11.6055 10.5527L9.38184 15H11.8818L11.1055 16.5527C10.8585 17.0467 11.0588 17.6475 11.5527 17.8945C12.0467 18.1415 12.6475 17.9412 12.8945 17.4473L15.1182 13H12.6182L13.3945 11.4473C13.6415 10.9533 13.4412 10.3525 12.9473 10.1055ZM10 6C9.44772 6 9 6.44772 9 7C9 7.55228 9.44772 8 10 8H14C14.5523 8 15 7.55228 15 7C15 6.44772 14.5523 6 14 6H10Z" fill="black"/>
<path d="M4 16.25V19C4 20.1046 4.89543 21 6 21H18C19.1046 21 20 20.1046 20 19V16.25" stroke="black" stroke-width="2" stroke-linecap="round"/>
<path d="M20 7.75V5C20 3.89543 19.1046 3 18 3H6C4.89543 3 4 3.89543 4 5V7.75" stroke="black" stroke-width="2" stroke-linecap="round"/>
</svg>
