<svg width="24" height="24" viewBox="0 0 24 24" fill="none" xmlns="http://www.w3.org/2000/svg">
<path d="M21 12C21 13.1819 20.7672 14.3522 20.3149 15.4442C19.8626 16.5361 19.1997 17.5282 18.364 18.364C17.5282 19.1997 16.5361 19.8626 15.4442 20.3149C14.3522 20.7672 13.1819 21 12 21C10.8181 21 9.64778 20.7672 8.55585 20.3149C7.46392 19.8626 6.47177 19.1997 5.63604 18.364C4.80031 17.5282 4.13738 16.5361 3.68508 15.4442C3.23279 14.3522 3 13.1819 3 12C3 10.8181 3.23279 9.64778 3.68508 8.55585C4.13738 7.46392 4.80031 6.47177 5.63604 5.63604C6.47177 4.80031 7.46392 4.13738 8.55585 3.68508C9.64778 3.23279 10.8181 3 12 3C13.1819 3 14.3522 3.23279 15.4442 3.68508C16.5361 4.13738 17.5282 4.80031 18.364 5.63604C19.1997 6.47177 19.8626 7.46392 20.3149 8.55585C20.7672 9.64778 21 10.8181 21 12L21 12Z" stroke="black" stroke-width="2" stroke-linecap="round"/>
<path d="M12.5 11L11 14H13.5L12 17" stroke="black" stroke-width="2" stroke-linecap="round"/>
<path d="M10 7H14" stroke="black" stroke-width="2" stroke-linecap="round"/>
<path d="M4 16.25V19C4 20.1046 4.89543 21 6 21H18C19.1046 21 20 20.1046 20 19V16.25" stroke="black" stroke-width="2" stroke-linecap="round"/>
<path d="M20 7.75V5C20 3.89543 19.1046 3 18 3H6C4.89543 3 4 3.89543 4 5V7.75" stroke="black" stroke-width="2" stroke-linecap="round"/>
</svg>
