<svg width="24" height="24" viewBox="0 0 24 24" fill="none" xmlns="http://www.w3.org/2000/svg">
<path d="M12 1C14.7614 1 17 3.23858 17 6V10C17 12.7614 14.7614 15 12 15C9.23858 15 7 12.7614 7 10V6C7 3.23858 9.23858 1 12 1ZM12 5C11.1716 5 10.5 5.67157 10.5 6.5C10.5 7.32843 11.1716 8 12 8C12.8284 8 13.5 7.32843 13.5 6.5C13.5 5.67157 12.8284 5 12 5Z" fill="black"/>
<path d="M15.0033 17.4149C13.0791 18.1942 10.9273 18.1951 9.00254 17.4172" stroke="black" stroke-width="2" stroke-linecap="square"/>
<path d="M18.0136 20.2107C16.2288 21.376 14.1439 21.9976 12.0125 22C9.88098 22.0024 7.79471 21.3855 6.00731 20.2243" stroke="black" stroke-width="2" stroke-linecap="square"/>
</svg>
