<svg width="24" height="24" viewBox="0 0 24 24" fill="none" xmlns="http://www.w3.org/2000/svg">
<path d="M21 12C21 12.3794 20.8536 12.8109 20.4687 13.2755C20.0782 13.7469 19.4658 14.2201 18.6239 14.6411C17.7859 15.0601 16.7683 15.4032 15.624 15.6402C14.4813 15.8768 13.2491 16 12 16C10.7509 16 9.51865 15.8768 8.37597 15.6402C7.2317 15.4032 6.21405 15.0601 5.37615 14.6411C4.53421 14.2201 3.9218 13.7469 3.53128 13.2755C3.14642 12.8109 3 12.3794 3 12C3 11.6206 3.14642 11.1891 3.53128 10.7245C3.9218 10.2531 4.53421 9.77986 5.37615 9.35889C6.21405 8.93994 7.2317 8.59681 8.37597 8.35982C9.51866 8.12316 10.7509 8 12 8C13.2491 8 14.4813 8.12316 15.624 8.35982C16.7683 8.59681 17.7859 8.93994 18.6239 9.35889C19.4658 9.77986 20.0782 10.2531 20.4687 10.7245C20.8536 11.1891 21 11.6206 21 12L21 12Z" stroke="black" stroke-width="2"/>
<ellipse cx="12" cy="12" rx="5.5" ry="1.5" fill="black"/>
<path d="M3 7C3 6.62058 3.14642 6.1891 3.53128 5.72453C3.9218 5.25313 4.53421 4.77986 5.37615 4.35889C6.21405 3.93994 7.2317 3.59681 8.37597 3.35982C9.51865 3.12316 10.7509 3 12 3C13.2491 3 14.4813 3.12316 15.624 3.35982C16.7683 3.59681 17.7859 3.93994 18.6239 4.35889C19.4658 4.77986 20.0782 5.25313 20.4687 5.72454C20.8536 6.1891 21 6.62058 21 7" stroke="black" stroke-width="2" stroke-linecap="round"/>
<path d="M12 20V22" stroke="black" stroke-width="2" stroke-linecap="round"/>
<path d="M18 19L19 21" stroke="black" stroke-width="2" stroke-linecap="round"/>
<path d="M6 19L5 21" stroke="black" stroke-width="2" stroke-linecap="round"/>
<path d="M3 7V12" stroke="black" stroke-width="2" stroke-linecap="round"/>
<path d="M21 7V12" stroke="black" stroke-width="2" stroke-linecap="round"/>
</svg>
